<svg xmlns="http://www.w3.org/2000/svg" width="1824" height="822" viewBox="0 0 1824 822" fill="none">
    <g opacity="0.07" clip-path="url(#clip0)">

        <path d="M1717 -0.000244141H1723V5.99976H1717V-0.000244141Z" fill="#030D1D"/>
        <path d="M1616 -0.000244141H1622V5.99976H1616V-0.000244141Z" fill="#030D1D"/>
        <path d="M1515 -0.000244141H1521V5.99976H1515V-0.000244141Z" fill="#030D1D"/>
        <path d="M1414 -0.000244141H1420V5.99976H1414V-0.000244141Z" fill="#030D1D"/>
        <path d="M1111 -0.000244141H1117V5.99976H1111V-0.000244141Z" fill="#030D1D"/>
        <path d="M1010 -0.000244141H1016V5.99976H1010V-0.000244141Z" fill="#030D1D"/>
        <path d="M909 -0.000244141H915V5.99976H909V-0.000244141Z" fill="#030D1D"/>
        <path d="M808 -0.000244141H814V5.99976H808V-0.000244141Z" fill="#030D1D"/>
        <path d="M707 -0.000244141H713V5.99976H707V-0.000244141Z" fill="#030D1D"/>
        <path d="M606 -0.000244141H612V5.99976H606V-0.000244141Z" fill="#030D1D"/>
        <path d="M505 -0.000244141H511V5.99976H505V-0.000244141Z" fill="#030D1D"/>
        <path d="M404 -0.000244141H410V5.99976H404V-0.000244141Z" fill="#030D1D"/>
        <path d="M303 -0.000244141H309V5.99976H303V-0.000244141Z" fill="#030D1D"/>
        <path d="M101 -0.000244141H107V5.99976H101V-0.000244141Z" fill="#030D1D"/>
        <path d="M0 -0.000244141H6V5.99976H0V-0.000244141Z" fill="#030D1D"/>
        <path d="M202 -0.000244141H208V5.99976H202V-0.000244141Z" fill="#030D1D"/>
        <path d="M1313 -0.000244141H1319V5.99976H1313V-0.000244141Z" fill="#030D1D"/>
        <path d="M1212 -0.000244141H1218V5.99976H1212V-0.000244141Z" fill="#030D1D"/>

        <path d="M1717 94.9998H1723V101H1717V94.9998Z" fill="#030D1D"/>
        <path d="M1616 94.9998H1622V101H1616V94.9998Z" fill="#030D1D"/>
        <path d="M1515 94.9998H1521V101H1515V94.9998Z" fill="#030D1D"/>
        <path d="M1414 94.9998H1420V101H1414V94.9998Z" fill="#030D1D"/>
        <path d="M1111 94.9998H1117V101H1111V94.9998Z" fill="#030D1D"/>
        <path d="M1010 94.9998H1016V101H1010V94.9998Z" fill="#030D1D"/>
        <path d="M909 94.9998H915V101H909V94.9998Z" fill="#030D1D"/>
        <path d="M808 94.9998H814V101H808V94.9998Z" fill="#030D1D"/>
        <path d="M707 94.9998H713V101H707V94.9998Z" fill="#030D1D"/>
        <path d="M606 94.9998H612V101H606V94.9998Z" fill="#030D1D"/>
        <path d="M505 94.9998H511V101H505V94.9998Z" fill="#030D1D"/>
        <path d="M404 94.9998H410V101H404V94.9998Z" fill="#030D1D"/>
        <path d="M303 94.9998H309V101H303V94.9998Z" fill="#030D1D"/>
        <path d="M101 94.9998H107V101H101V94.9998Z" fill="#030D1D"/>
        <path d="M0 94.9998H6V101H0V94.9998Z" fill="#030D1D"/>
        <path d="M202 94.9998H208V101H202V94.9998Z" fill="#030D1D"/>
        <path d="M1313 94.9998H1319V101H1313V94.9998Z" fill="#030D1D"/>
        <path d="M1212 94.9998H1218V101H1212V94.9998Z" fill="#030D1D"/>

        <path d="M1717 190H1723V196H1717V190Z" fill="#030D1D"/>
        <path d="M1616 190H1622V196H1616V190Z" fill="#030D1D"/>
        <path d="M1515 190H1521V196H1515V190Z" fill="#030D1D"/>
        <path d="M1414 190H1420V196H1414V190Z" fill="#030D1D"/>
        <path d="M1111 190H1117V196H1111V190Z" fill="#030D1D"/>
        <path d="M1010 190H1016V196H1010V190Z" fill="#030D1D"/>
        <path d="M909 190H915V196H909V190Z" fill="#030D1D"/>
        <path d="M808 190H814V196H808V190Z" fill="#030D1D"/>
        <path d="M707 190H713V196H707V190Z" fill="#030D1D"/>
        <path d="M606 190H612V196H606V190Z" fill="#030D1D"/>
        <path d="M505 190H511V196H505V190Z" fill="#030D1D"/>
        <path d="M404 190H410V196H404V190Z" fill="#030D1D"/>
        <path d="M303 190H309V196H303V190Z" fill="#030D1D"/>
        <path d="M101 190H107V196H101V190Z" fill="#030D1D"/>
        <path d="M0 190H6V196H0V190Z" fill="#030D1D"/>
        <path d="M202 190H208V196H202V190Z" fill="#030D1D"/>
        <path d="M1313 190H1319V196H1313V190Z" fill="#030D1D"/>
        <path d="M1212 190H1218V196H1212V190Z" fill="#030D1D"/>

        <path d="M1717 285H1723V291H1717V285Z" fill="#030D1D"/>
        <path d="M1616 285H1622V291H1616V285Z" fill="#030D1D"/>
        <path d="M1515 285H1521V291H1515V285Z" fill="#030D1D"/>
        <path d="M1414 285H1420V291H1414V285Z" fill="#030D1D"/>
        <path d="M1111 285H1117V291H1111V285Z" fill="#030D1D"/>
        <path d="M1010 285H1016V291H1010V285Z" fill="#030D1D"/>
        <path d="M909 285H915V291H909V285Z" fill="#030D1D"/>
        <path d="M808 285H814V291H808V285Z" fill="#030D1D"/>
        <path d="M707 285H713V291H707V285Z" fill="#030D1D"/>
        <path d="M606 285H612V291H606V285Z" fill="#030D1D"/>
        <path d="M505 285H511V291H505V285Z" fill="#030D1D"/>
        <path d="M404 285H410V291H404V285Z" fill="#030D1D"/>
        <path d="M303 285H309V291H303V285Z" fill="#030D1D"/>
        <path d="M101 285H107V291H101V285Z" fill="#030D1D"/>
        <path d="M0 285H6V291H0V285Z" fill="#030D1D"/>
        <path d="M202 285H208V291H202V285Z" fill="#030D1D"/>
        <path d="M1313 285H1319V291H1313V285Z" fill="#030D1D"/>
        <path d="M1212 285H1218V291H1212V285Z" fill="#030D1D"/>

        <path d="M1717 380H1723V386H1717V380Z" fill="#030D1D"/>
        <path d="M1616 380H1622V386H1616V380Z" fill="#030D1D"/>
        <path d="M1515 380H1521V386H1515V380Z" fill="#030D1D"/>
        <path d="M1414 380H1420V386H1414V380Z" fill="#030D1D"/>
        <path d="M1111 380H1117V386H1111V380Z" fill="#030D1D"/>
        <path d="M1010 380H1016V386H1010V380Z" fill="#030D1D"/>
        <path d="M909 380H915V386H909V380Z" fill="#030D1D"/>
        <path d="M808 380H814V386H808V380Z" fill="#030D1D"/>
        <path d="M707 380H713V386H707V380Z" fill="#030D1D"/>
        <path d="M606 380H612V386H606V380Z" fill="#030D1D"/>
        <path d="M505 380H511V386H505V380Z" fill="#030D1D"/>
        <path d="M404 380H410V386H404V380Z" fill="#030D1D"/>
        <path d="M303 380H309V386H303V380Z" fill="#030D1D"/>
        <path d="M101 380H107V386H101V380Z" fill="#030D1D"/>
        <path d="M0 380H6V386H0V380Z" fill="#030D1D"/>
        <path d="M202 380H208V386H202V380Z" fill="#030D1D"/>
        <path d="M1313 380H1319V386H1313V380Z" fill="#030D1D"/>
        <path d="M1212 380H1218V386H1212V380Z" fill="#030D1D"/>

        <path d="M1717 475H1723V481H1717V475Z" fill="#030D1D"/>
        <path d="M1616 475H1622V481H1616V475Z" fill="#030D1D"/>
        <path d="M1515 475H1521V481H1515V475Z" fill="#030D1D"/>
        <path d="M1414 475H1420V481H1414V475Z" fill="#030D1D"/>
        <path d="M1111 475H1117V481H1111V475Z" fill="#030D1D"/>
        <path d="M1010 475H1016V481H1010V475Z" fill="#030D1D"/>
        <path d="M909 475H915V481H909V475Z" fill="#030D1D"/>
        <path d="M808 475H814V481H808V475Z" fill="#030D1D"/>
        <path d="M707 475H713V481H707V475Z" fill="#030D1D"/>
        <path d="M606 475H612V481H606V475Z" fill="#030D1D"/>
        <path d="M505 475H511V481H505V475Z" fill="#030D1D"/>
        <path d="M404 475H410V481H404V475Z" fill="#030D1D"/>
        <path d="M303 475H309V481H303V475Z" fill="#030D1D"/>
        <path d="M101 475H107V481H101V475Z" fill="#030D1D"/>
        <path d="M0 475H6V481H0V475Z" fill="#030D1D"/>
        <path d="M202 475H208V481H202V475Z" fill="#030D1D"/>
        <path d="M1313 475H1319V481H1313V475Z" fill="#030D1D"/>
        <path d="M1212 475H1218V481H1212V475Z" fill="#030D1D"/>

        <path d="M1717 570H1723V576H1717V570Z" fill="#030D1D"/>
        <path d="M1616 570H1622V576H1616V570Z" fill="#030D1D"/>
        <path d="M1515 570H1521V576H1515V570Z" fill="#030D1D"/>
        <path d="M1414 570H1420V576H1414V570Z" fill="#030D1D"/>
        <path d="M1111 570H1117V576H1111V570Z" fill="#030D1D"/>
        <path d="M1010 570H1016V576H1010V570Z" fill="#030D1D"/>
        <path d="M909 570H915V576H909V570Z" fill="#030D1D"/>
        <path d="M808 570H814V576H808V570Z" fill="#030D1D"/>
        <path d="M707 570H713V576H707V570Z" fill="#030D1D"/>
        <path d="M606 570H612V576H606V570Z" fill="#030D1D"/>
        <path d="M505 570H511V576H505V570Z" fill="#030D1D"/>
        <path d="M404 570H410V576H404V570Z" fill="#030D1D"/>
        <path d="M303 570H309V576H303V570Z" fill="#030D1D"/>
        <path d="M101 570H107V576H101V570Z" fill="#030D1D"/>
        <path d="M0 570H6V576H0V570Z" fill="#030D1D"/>
        <path d="M202 570H208V576H202V570Z" fill="#030D1D"/>
        <path d="M1313 570H1319V576H1313V570Z" fill="#030D1D"/>
        <path d="M1212 570H1218V576H1212V570Z" fill="#030D1D"/>

        <path d="M1717 665H1723V671H1717V665Z" fill="#030D1D"/>
        <path d="M1616 665H1622V671H1616V665Z" fill="#030D1D"/>
        <path d="M1515 665H1521V671H1515V665Z" fill="#030D1D"/>
        <path d="M1414 665H1420V671H1414V665Z" fill="#030D1D"/>
        <path d="M1111 665H1117V671H1111V665Z" fill="#030D1D"/>
        <path d="M1010 665H1016V671H1010V665Z" fill="#030D1D"/>
        <path d="M909 665H915V671H909V665Z" fill="#030D1D"/>
        <path d="M808 665H814V671H808V665Z" fill="#030D1D"/>
        <path d="M707 665H713V671H707V665Z" fill="#030D1D"/>
        <path d="M606 665H612V671H606V665Z" fill="#030D1D"/>
        <path d="M505 665H511V671H505V665Z" fill="#030D1D"/>
        <path d="M404 665H410V671H404V665Z" fill="#030D1D"/>
        <path d="M303 665H309V671H303V665Z" fill="#030D1D"/>
        <path d="M101 665H107V671H101V665Z" fill="#030D1D"/>
        <path d="M0 665H6V671H0V665Z" fill="#030D1D"/>
        <path d="M202 665H208V671H202V665Z" fill="#030D1D"/>
        <path d="M1313 665H1319V671H1313V665Z" fill="#030D1D"/>
        <path d="M1212 665H1218V671H1212V665Z" fill="#030D1D"/>

        <path d="M1717 760H1723V766H1717V760Z" fill="#030D1D"/>
        <path d="M1616 760H1622V766H1616V760Z" fill="#030D1D"/>
        <path d="M1515 760H1521V766H1515V760Z" fill="#030D1D"/>
        <path d="M1414 760H1420V766H1414V760Z" fill="#030D1D"/>
        <path d="M1111 760H1117V766H1111V760Z" fill="#030D1D"/>
        <path d="M1010 760H1016V766H1010V760Z" fill="#030D1D"/>
        <path d="M909 760H915V766H909V760Z" fill="#030D1D"/>
        <path d="M808 760H814V766H808V760Z" fill="#030D1D"/>
        <path d="M707 760H713V766H707V760Z" fill="#030D1D"/>
        <path d="M606 760H612V766H606V760Z" fill="#030D1D"/>
        <path d="M505 760H511V766H505V760Z" fill="#030D1D"/>
        <path d="M404 760H410V766H404V760Z" fill="#030D1D"/>
        <path d="M303 760H309V766H303V760Z" fill="#030D1D"/>
        <path d="M101 760H107V766H101V760Z" fill="#030D1D"/>
        <path d="M0 760H6V766H0V760Z" fill="#030D1D"/>
        <path d="M202 760H208V766H202V760Z" fill="#030D1D"/>
        <path d="M1313 760H1319V766H1313V760Z" fill="#030D1D"/>
        <path d="M1212 760H1218V766H1212V760Z" fill="#030D1D"/>
        <path d="M1316 2.99976V97.9998" stroke="#030D1D" stroke-width="0.3" stroke-miterlimit="10"/>
        <path d="M508 573H407" stroke="#030D1D" stroke-width="0.3" stroke-miterlimit="10"/>
        <path d="M1417 573H1518" stroke="#030D1D" stroke-width="0.3" stroke-miterlimit="10"/>
        <path d="M407 97.9998H306" stroke="#030D1D" stroke-width="0.3" stroke-miterlimit="10"/>
        <path d="M104 668V763" stroke="#030D1D" stroke-width="0.3" stroke-miterlimit="10"/>
    </g>
    <defs>
        <clipPath id="clip0">
            <rect width="1824" height="822" fill="white" transform="matrix(-1 0 0 1 1824 -0.000244141)"/>
        </clipPath>
    </defs>
</svg>